<?xml version="1.0" encoding="UTF-8"?>
<svg id="Camada_2" data-name="Camada 2" xmlns="http://www.w3.org/2000/svg" viewBox="0 0 39.08 44.47">
  <defs>
    <style>
      .cls-1, .cls-2 {
        fill: #2c2d30;
      }

      .cls-2 {
        font-family: MyriadPro-Black, 'Myriad Pro';
        font-size: 9.71px;
        font-weight: 800;
      }

      .cls-3 {
        fill: #0095ff;
        stroke: #fff;
        stroke-miterlimit: 10;
        stroke-width: 1.93px;
      }
    </style>
  </defs>
  <g id="Camada_1-2" data-name="Camada 1">
    <g>
      <path class="cls-1" d="M20.4,0c1.03,.19,2.09,.31,3.1,.6,2.93,.82,5.32,2.48,7.22,4.85,1.38,1.72,2.32,3.66,2.78,5.82,.82,3.8,.24,7.39-1.82,10.71-1.47,2.36-2.99,4.68-4.48,7.02-.07,.11-.13,.22-.22,.38,.46,.08,.88,.16,1.3,.24,2.47,.5,4.9,1.13,7.14,2.33,1.23,.66,2.37,1.46,3.09,2.71,.86,1.52,.74,2.99-.27,4.39-.8,1.11-1.92,1.84-3.11,2.44-2.49,1.26-5.17,1.91-7.9,2.36-4.32,.7-8.67,.79-13.02,.33-3.29-.35-6.52-.98-9.56-2.34-1.34-.6-2.61-1.33-3.57-2.48-1.55-1.85-1.41-4.12,.32-5.8,1.17-1.14,2.59-1.88,4.1-2.47,2.01-.79,4.1-1.29,6.23-1.65,.11-.02,.22-.05,.37-.09-.11-.17-.19-.3-.27-.43-1.49-2.33-3.01-4.63-4.46-6.98-1.88-3.03-2.56-6.35-1.94-9.86C6.33,6.96,9.23,3.34,13.93,1.17c1.39-.64,2.87-.98,4.39-1.1,.11,0,.22-.04,.33-.07,.58,0,1.16,0,1.74,0Zm-.87,36.14c.11-.16,.2-.29,.28-.42,3.13-4.9,6.25-9.8,9.38-14.7,2.47-3.85,2.79-7.87,.75-11.94-1.89-3.78-5.04-5.97-9.25-6.39-4.43-.44-8,1.26-10.66,4.82-2.79,3.72-2.96,9.15-.46,13.07,3.23,5.06,6.46,10.11,9.69,15.17,.08,.12,.16,.23,.26,.38Zm-.02,5.62c.98,0,1.97,.04,2.95,0,3.16-.17,6.27-.63,9.27-1.65,1.41-.48,2.79-1.05,3.92-2.07,1.04-.92,1.05-1.77,.06-2.72-.82-.78-1.81-1.28-2.84-1.71-2.31-.96-4.75-1.45-7.22-1.77-.13-.02-.34,.12-.42,.25-.61,.92-1.19,1.85-1.78,2.77-.91,1.43-1.82,2.85-2.72,4.28-.34,.54-.79,.83-1.45,.73-.47-.08-.75-.39-.99-.77-1.47-2.32-2.95-4.63-4.42-6.95-.15-.24-.29-.37-.61-.3-.61,.13-1.23,.18-1.84,.3-2.29,.42-4.56,.98-6.6,2.15-.65,.37-1.26,.87-1.79,1.41-.6,.61-.56,1.3,0,1.94,.28,.32,.61,.62,.96,.87,1.37,.96,2.92,1.52,4.5,1.97,3.6,1.02,7.29,1.36,11.02,1.3Z"/>
      <path class="cls-3" d="M23.87,39.55H15.23c1.44-2.89,2.85-5.7,4.32-8.65,1.46,2.92,2.87,5.73,4.33,8.65Z"/>
      <text class="cls-2" transform="translate(10.19 18.16)"><tspan x="0" y="0">GPS</tspan></text>
    </g>
  </g>
</svg>