<svg width="93" height="92" viewBox="0 0 93 92" fill="none" xmlns="http://www.w3.org/2000/svg">
<circle cx="46.5" cy="46" r="46" fill="#DFDFDF"/>
<g clip-path="url(#clip0_416_18)">
<path d="M72.9125 53.1615C71.2423 53.6289 69.8005 54.1154 68.3228 54.4174C67.2463 54.6368 66.9625 55.1488 66.9756 56.1631C67.0245 60.3985 66.9462 64.637 67.031 68.8724C67.0539 70.0171 66.6331 70.4178 65.5762 70.6976C59.5512 72.2842 53.5491 73.9472 47.5274 75.5434C46.9402 75.6993 46.2356 75.7056 45.6517 75.5498C39.5779 73.9409 33.5235 72.2683 27.4464 70.6658C26.4319 70.3987 26.0861 69.9662 26.1024 68.9265C26.1644 64.6911 26.0861 60.4525 26.1514 56.2172C26.1677 55.0979 25.8121 54.6146 24.6932 54.3888C23.2645 54.1027 21.8749 53.6289 20.2014 53.1615C22.0902 50.7926 23.8973 48.5223 25.8186 46.1152C23.7864 44.2583 21.7933 42.4331 19.6045 40.4299C24.5986 39.0658 29.3286 37.7716 34.0585 36.4839C35.7841 36.0133 37.5456 35.6476 39.2288 35.0657C40.5597 34.6047 41.5122 34.7159 42.5039 35.797C43.6945 37.088 45.0972 38.1946 46.5651 39.5237C48.1374 38.096 49.6379 36.6619 51.2298 35.3328C51.6343 34.9926 52.4041 34.7382 52.8869 34.8686C59.5414 36.6206 66.1731 38.4457 72.8113 40.255C72.9516 40.2932 73.0821 40.3727 73.3952 40.5157C71.3336 42.4172 69.3438 44.2519 67.3148 46.1248C69.1774 48.4682 70.9683 50.7226 72.9092 53.1646L72.9125 53.1615ZM27.9129 55.2791C27.9129 59.5813 27.9618 63.5941 27.8802 67.6069C27.8574 68.7643 28.3206 69.1331 29.3677 69.4098C34.2379 70.6817 39.0853 72.033 43.9424 73.3494C44.4448 73.4862 44.9569 73.5847 45.4952 73.7056V54.074C44.373 55.4667 43.3716 56.5256 42.592 57.7243C41.8743 58.8245 41.1143 58.9358 39.9008 58.5797C36.0157 57.4382 32.0915 56.4207 27.9096 55.2791H27.9129ZM47.5502 73.7755C53.3208 72.2111 58.9543 70.6944 64.578 69.1331C64.839 69.06 65.1684 68.6149 65.1717 68.3382C65.2076 64.0647 65.1978 59.7912 65.1978 55.3618C64.5617 55.5049 64.0952 55.5908 63.6385 55.7148C60.0862 56.6782 56.5273 57.6099 52.9946 58.6337C51.9735 58.9295 51.3277 58.8563 50.6883 57.9247C49.8141 56.6528 48.7507 55.5049 47.5502 54.0391V73.7723V73.7755ZM62.1086 46.2011C62.1021 46.0739 62.0956 45.9467 62.0891 45.8195C57.0329 44.449 51.9801 43.0627 46.9109 41.7368C46.4379 41.6127 45.8442 41.7972 45.3353 41.9339C41.3557 43.0023 37.3825 44.0929 33.4094 45.1772C32.6037 45.3966 31.7979 45.6287 30.7671 45.9149C31.1423 46.1565 31.2499 46.2678 31.3771 46.3028C36.1886 47.6129 41.0001 48.9197 45.8181 50.2139C46.1737 50.3093 46.5879 50.4142 46.9207 50.3252C51.9866 48.9706 57.046 47.5811 62.1086 46.2042V46.2011ZM45.032 51.8037C39.2582 50.2298 33.7845 48.7258 28.2978 47.2694C27.9096 47.1677 27.2441 47.244 27.0223 47.4984C25.7371 48.977 24.5465 50.5318 23.196 52.2203C29.0187 53.8006 34.5902 55.3268 40.1715 56.8022C40.4977 56.8881 41.0719 56.7132 41.2872 56.4588C42.5267 55.0025 43.6913 53.489 45.0352 51.8037H45.032ZM69.9179 52.2171C68.7077 50.6972 67.6182 49.4476 66.6722 48.1057C66.0492 47.2218 65.4359 47.0087 64.3725 47.3362C61.8412 48.1121 59.2642 48.7544 56.7067 49.4539C53.9047 50.2202 51.1026 50.9865 48.095 51.8101C49.4096 53.4667 50.5676 54.9866 51.8137 56.4334C52.0518 56.7068 52.6977 56.8754 53.0696 56.7768C58.6085 55.3109 64.1344 53.791 69.9179 52.2171V52.2171ZM48.568 40.1946C48.7963 40.3377 48.917 40.4553 49.0606 40.4967C54.3809 41.9434 59.7045 43.3902 65.0314 44.8115C65.3609 44.9006 65.8665 44.961 66.0753 44.7861C67.3572 43.7114 68.5772 42.5635 70.0223 41.2566C65.4392 40.007 61.2181 38.8655 57.0036 37.7049C53.759 36.8103 50.9471 37.6402 48.568 40.1946ZM23.1373 41.2693C24.3214 42.36 25.3489 43.2153 26.2623 44.1692C26.9408 44.8783 27.5834 45.0119 28.5457 44.7384C33.4877 43.3361 38.4492 42.0102 43.4042 40.6525C43.7826 40.5475 44.1479 40.3917 44.6829 40.2041C43.613 39.228 42.6507 38.4521 41.8189 37.5554C41.0295 36.7033 40.2498 36.522 39.1081 36.8686C36.1593 37.7558 33.1647 38.4998 30.193 39.3138C27.9226 39.9339 25.6555 40.573 23.1373 41.2725V41.2693Z" fill="#595C64"/>
</g>
<path d="M54.6683 22.3551C54.6683 28.3738 46.93 33.5327 46.93 33.5327C46.93 33.5327 39.1917 28.3738 39.1917 22.3551C39.1917 20.3028 40.0069 18.3345 41.4582 16.8833C42.9094 15.4321 44.8776 14.6168 46.93 14.6168C48.9823 14.6168 50.9506 15.4321 52.4018 16.8833C53.853 18.3345 54.6683 20.3028 54.6683 22.3551Z" stroke="#595C64" stroke-width="2" stroke-linecap="round" stroke-linejoin="round"/>
<path d="M46.93 24.9346C48.3546 24.9346 49.5095 23.7798 49.5095 22.3552C49.5095 20.9306 48.3546 19.7758 46.93 19.7758C45.5054 19.7758 44.3506 20.9306 44.3506 22.3552C44.3506 23.7798 45.5054 24.9346 46.93 24.9346Z" stroke="#1196F5" stroke-width="2" stroke-linecap="round" stroke-linejoin="round"/>
<defs>
<clipPath id="clip0_416_18">
<rect width="69.6449" height="52.4486" fill="white" transform="translate(11.6775 23.215)"/>
</clipPath>
</defs>
</svg>
